<svg xmlns="http://www.w3.org/2000/svg" xmlns:xlink="http://www.w3.org/1999/xlink" width="162" zoomAndPan="magnify" viewBox="0 0 121.5 37.5" height="50" preserveAspectRatio="xMidYMid meet" version="1.0"><defs><g/><clipPath id="79a9ac968b"><path d="M 100 11 L 120.453125 11 L 120.453125 36 L 100 36 Z M 100 11 " clip-rule="nonzero"/></clipPath></defs><g fill="#000000" fill-opacity="1"><g transform="translate(0.749125, 27.259802)"><g><path d="M 19.328125 -15.34375 L 12.03125 -8.015625 L 20.046875 0 L 13.21875 0 L 7.09375 -6.140625 L 7.09375 0 L 1.796875 0 L 1.796875 -25.734375 L 7.09375 -25.734375 L 7.09375 -10 L 12.453125 -15.34375 Z M 19.328125 -15.34375 "/></g></g></g><g fill="#000000" fill-opacity="1"><g transform="translate(17.747172, 27.259802)"><g><path d="M 2.84375 -1.890625 C 1.40625 -3.460938 0.6875 -5.382812 0.6875 -7.65625 C 0.6875 -9.9375 1.40625 -11.863281 2.84375 -13.4375 C 4.28125 -15.007812 6.101562 -15.796875 8.3125 -15.796875 C 10.351562 -15.796875 12.03125 -15.160156 13.34375 -13.890625 L 13.34375 -15.34375 L 18.640625 -15.34375 L 18.640625 0 L 13.40625 0 L 13.40625 -1.734375 L 13.34375 -1.734375 C 12.03125 -0.273438 10.351562 0.453125 8.3125 0.453125 C 6.101562 0.453125 4.28125 -0.328125 2.84375 -1.890625 Z M 7.34375 -10.265625 C 6.65625 -9.585938 6.3125 -8.71875 6.3125 -7.65625 C 6.3125 -6.601562 6.640625 -5.738281 7.296875 -5.0625 C 7.953125 -4.394531 8.820312 -4.0625 9.90625 -4.0625 C 10.9375 -4.0625 11.785156 -4.398438 12.453125 -5.078125 C 13.128906 -5.765625 13.46875 -6.625 13.46875 -7.65625 C 13.46875 -8.71875 13.125 -9.585938 12.4375 -10.265625 C 11.75 -10.941406 10.90625 -11.28125 9.90625 -11.28125 C 8.882812 -11.28125 8.03125 -10.941406 7.34375 -10.265625 Z M 7.34375 -10.265625 "/></g></g></g><g fill="#000000" fill-opacity="1"><g transform="translate(35.852507, 27.259802)"><g><path d="M 1.796875 0 L 1.796875 -15.34375 L 7.09375 -15.34375 L 7.09375 -13.140625 L 7.15625 -13.140625 C 7.195312 -13.210938 7.257812 -13.304688 7.34375 -13.421875 C 7.4375 -13.546875 7.628906 -13.757812 7.921875 -14.0625 C 8.222656 -14.363281 8.539062 -14.632812 8.875 -14.875 C 9.21875 -15.113281 9.660156 -15.328125 10.203125 -15.515625 C 10.742188 -15.703125 11.289062 -15.796875 11.84375 -15.796875 C 12.425781 -15.796875 12.992188 -15.710938 13.546875 -15.546875 C 14.109375 -15.390625 14.519531 -15.234375 14.78125 -15.078125 L 15.203125 -14.84375 L 12.984375 -10.359375 C 12.328125 -10.910156 11.410156 -11.1875 10.234375 -11.1875 C 9.597656 -11.1875 9.050781 -11.046875 8.59375 -10.765625 C 8.132812 -10.492188 7.804688 -10.15625 7.609375 -9.75 C 7.421875 -9.351562 7.285156 -9.015625 7.203125 -8.734375 C 7.128906 -8.453125 7.09375 -8.234375 7.09375 -8.078125 L 7.09375 0 Z M 1.796875 0 "/></g></g></g><g fill="#000000" fill-opacity="1"><g transform="translate(48.421415, 27.259802)"><g><path d="M 17.328125 -6.9375 L 6.1875 -6.9375 C 6.1875 -5.863281 6.535156 -5.066406 7.234375 -4.546875 C 7.929688 -4.023438 8.691406 -3.765625 9.515625 -3.765625 C 10.367188 -3.765625 11.046875 -3.878906 11.546875 -4.109375 C 12.046875 -4.335938 12.613281 -4.789062 13.25 -5.46875 L 17.078125 -3.5625 C 15.484375 -0.882812 12.832031 0.453125 9.125 0.453125 C 6.8125 0.453125 4.828125 -0.335938 3.171875 -1.921875 C 1.515625 -3.515625 0.6875 -5.425781 0.6875 -7.65625 C 0.6875 -9.894531 1.515625 -11.8125 3.171875 -13.40625 C 4.828125 -15 6.8125 -15.796875 9.125 -15.796875 C 11.5625 -15.796875 13.539062 -15.09375 15.0625 -13.6875 C 16.59375 -12.28125 17.359375 -10.269531 17.359375 -7.65625 C 17.359375 -7.300781 17.347656 -7.0625 17.328125 -6.9375 Z M 6.34375 -9.875 L 12.171875 -9.875 C 12.054688 -10.675781 11.742188 -11.289062 11.234375 -11.71875 C 10.722656 -12.144531 10.070312 -12.359375 9.28125 -12.359375 C 8.394531 -12.359375 7.691406 -12.128906 7.171875 -11.671875 C 6.660156 -11.210938 6.382812 -10.613281 6.34375 -9.875 Z M 6.34375 -9.875 "/></g></g></g><g fill="#000000" fill-opacity="1"><g transform="translate(64.132621, 27.259802)"><g><path d="M 17.328125 -6.9375 L 6.1875 -6.9375 C 6.1875 -5.863281 6.535156 -5.066406 7.234375 -4.546875 C 7.929688 -4.023438 8.691406 -3.765625 9.515625 -3.765625 C 10.367188 -3.765625 11.046875 -3.878906 11.546875 -4.109375 C 12.046875 -4.335938 12.613281 -4.789062 13.25 -5.46875 L 17.078125 -3.5625 C 15.484375 -0.882812 12.832031 0.453125 9.125 0.453125 C 6.8125 0.453125 4.828125 -0.335938 3.171875 -1.921875 C 1.515625 -3.515625 0.6875 -5.425781 0.6875 -7.65625 C 0.6875 -9.894531 1.515625 -11.8125 3.171875 -13.40625 C 4.828125 -15 6.8125 -15.796875 9.125 -15.796875 C 11.5625 -15.796875 13.539062 -15.09375 15.0625 -13.6875 C 16.59375 -12.28125 17.359375 -10.269531 17.359375 -7.65625 C 17.359375 -7.300781 17.347656 -7.0625 17.328125 -6.9375 Z M 6.34375 -9.875 L 12.171875 -9.875 C 12.054688 -10.675781 11.742188 -11.289062 11.234375 -11.71875 C 10.722656 -12.144531 10.070312 -12.359375 9.28125 -12.359375 C 8.394531 -12.359375 7.691406 -12.128906 7.171875 -11.671875 C 6.660156 -11.210938 6.382812 -10.613281 6.34375 -9.875 Z M 6.34375 -9.875 "/></g></g></g><g fill="#000000" fill-opacity="1"><g transform="translate(79.843826, 27.259802)"><g><path d="M 1.796875 0 L 1.796875 -15.34375 L 7.09375 -15.34375 L 7.09375 -13.140625 L 7.15625 -13.140625 C 7.195312 -13.210938 7.257812 -13.304688 7.34375 -13.421875 C 7.4375 -13.546875 7.628906 -13.757812 7.921875 -14.0625 C 8.222656 -14.363281 8.539062 -14.632812 8.875 -14.875 C 9.21875 -15.113281 9.660156 -15.328125 10.203125 -15.515625 C 10.742188 -15.703125 11.289062 -15.796875 11.84375 -15.796875 C 12.425781 -15.796875 12.992188 -15.710938 13.546875 -15.546875 C 14.109375 -15.390625 14.519531 -15.234375 14.78125 -15.078125 L 15.203125 -14.84375 L 12.984375 -10.359375 C 12.328125 -10.910156 11.410156 -11.1875 10.234375 -11.1875 C 9.597656 -11.1875 9.050781 -11.046875 8.59375 -10.765625 C 8.132812 -10.492188 7.804688 -10.15625 7.609375 -9.75 C 7.421875 -9.351562 7.285156 -9.015625 7.203125 -8.734375 C 7.128906 -8.453125 7.09375 -8.234375 7.09375 -8.078125 L 7.09375 0 Z M 1.796875 0 "/></g></g></g><g fill="#0097b2" fill-opacity="1"><g transform="translate(92.413773, 27.259802)"><g><path d="M 2.6875 -15.34375 L 2.6875 -18.609375 C 2.707031 -20.898438 3.242188 -22.734375 4.296875 -24.109375 C 5.359375 -25.492188 6.828125 -26.1875 8.703125 -26.1875 C 9.503906 -26.1875 10.269531 -26.070312 11 -25.84375 C 11.726562 -25.613281 12.25 -25.378906 12.5625 -25.140625 L 13.078125 -24.8125 L 11.21875 -21.0625 C 10.738281 -21.34375 10.210938 -21.484375 9.640625 -21.484375 C 8.972656 -21.484375 8.53125 -21.257812 8.3125 -20.8125 C 8.09375 -20.363281 7.984375 -19.582031 7.984375 -18.46875 L 7.984375 -15.34375 L 11.515625 -15.34375 L 11.515625 -11.3125 L 7.984375 -11.3125 L 7.984375 0 L 2.6875 0 L 2.6875 -11.3125 L 0.484375 -11.3125 L 0.484375 -15.34375 Z M 2.6875 -15.34375 "/></g></g></g><g clip-path="url(#79a9ac968b)"><g fill="#0097b2" fill-opacity="1"><g transform="translate(101.301709, 27.259802)"><g><path d="M 13.4375 -15.34375 L 19.53125 -15.34375 L 7.484375 7.78125 L 1.375 7.78125 L 6.671875 -2.390625 L -0.59375 -15.34375 L 5.5 -15.34375 L 9.78125 -7.484375 Z M 13.4375 -15.34375 "/></g></g></g></g></svg>